# This file uses centimeters as units for non-parametric coordinates.

mtllib 2.mtl
g default
v 11.504478 47.245258 0.340202
v 12.291842 46.787807 0.340202
v 11.504478 50.142403 0.340202
v 12.291842 50.590469 0.340202
v 11.455420 50.471321 -0.130599
v 12.340900 50.875427 -0.130599
v 11.455420 46.787807 -0.130599
v 12.340900 46.506622 -0.130599
v 11.341908 50.376968 0.090358
v 12.454412 50.836872 0.090358
v 12.454412 46.550789 0.090358
v 11.341908 47.015339 0.090358
v 11.898160 47.015339 0.555655
v 12.077244 45.671947 -0.095260
v 11.898160 46.550789 -0.374939
v 11.898160 50.836872 -0.374939
v 11.898160 51.715714 0.474147
v 11.898160 50.372322 0.555655
v 11.557356 49.702332 0.306643
v 11.898160 49.699657 0.493157
v 12.238964 49.693005 0.306643
v 12.379698 49.694256 0.090358
v 12.281432 49.691349 -0.100921
v 11.898160 49.694256 -0.312442
v 11.514888 49.642128 -0.100921
v 11.416622 49.701645 0.090358
vt 0.375000 0.000000
vt 0.625000 0.000000
vt 0.375000 0.250000
vt 0.625000 0.250000
vt 0.375000 0.500000
vt 0.625000 0.500000
vt 0.375000 0.750000
vt 0.625000 0.750000
vt 0.375000 1.000000
vt 0.625000 1.000000
vt 0.875000 0.000000
vt 0.875000 0.250000
vt 0.125000 0.000000
vt 0.125000 0.250000
vt 0.250000 0.250000
vt 0.375000 0.375000
vt 0.625000 0.375000
vt 0.750000 0.250000
vt 0.625000 0.875000
vt 0.750000 0.000000
vt 0.250000 0.000000
vt 0.375000 0.875000
vt 0.500000 0.000000
vt 0.500000 1.000000
vt 0.500000 0.875000
vt 0.500000 0.750000
vt 0.500000 0.500000
vt 0.500000 0.375000
vt 0.500000 0.250000
vt 0.375000 0.123321
vt 0.500000 0.123321
vt 0.625000 0.123321
vt 0.750000 0.123321
vt 0.625000 0.626679
vt 0.875000 0.123321
vt 0.500000 0.626679
vt 0.125000 0.123321
vt 0.375000 0.626679
vt 0.250000 0.123321
vn 0.257861 -0.085511 0.962391
vn 0.043617 -0.000510 0.999048
vn 0.487205 0.000105 0.873288
vn 0.494276 -0.069657 0.866510
vn -0.436850 0.673630 -0.596141
vn -0.260166 0.858756 0.441421
vn 0.797514 0.515077 0.314112
vn 0.479261 0.664862 -0.572946
vn 0.484154 -0.000053 -0.874983
vn 0.037595 -0.001368 -0.999292
vn 0.197207 -0.055423 -0.978794
vn 0.484203 -0.046989 -0.873693
vn -0.186618 -0.905586 0.380904
vn -0.394512 -0.500944 -0.770335
vn 0.624574 -0.228903 -0.746666
vn 0.621884 -0.503923 0.599435
vn 0.987846 -0.066251 -0.140609
vn 0.997153 -0.000435 0.075411
vn 0.888237 0.000267 -0.459385
vn 0.886034 -0.056968 -0.460108
vn -0.883230 0.005881 -0.468904
vn -0.996590 -0.004312 0.082402
vn -0.972177 -0.105482 -0.209156
vn -0.883012 -0.087849 -0.461055
vn -0.299317 0.120578 0.946504
vn 0.583143 0.108180 0.805135
vn 0.845465 0.000101 0.534030
vn 0.851273 -0.061812 0.521070
vn -0.401475 -0.443418 0.801373
vn 0.369298 -0.398624 0.839475
vn -0.847235 -0.000051 0.531218
vn -0.857801 -0.113209 0.501359
vn -0.672771 -0.453253 0.584757
vn -0.585999 -0.407231 0.700548
vn -0.763248 -0.440302 -0.472849
vn -0.460859 -0.055305 -0.885748
vn -0.475915 0.001700 -0.879490
vn -0.881805 0.327016 0.339823
vn -0.761311 0.481759 -0.433952
vn -0.638263 0.094668 0.763975
vn -0.471497 -0.000768 0.881867
vn -0.454264 -0.098025 0.885458
vn -0.474769 0.021321 0.879852
vn 0.188404 0.022609 0.981831
vn 0.484795 0.019613 0.874408
vn 0.842769 0.020762 0.537876
vn 0.994253 0.023848 -0.104370
vn 0.888317 0.020988 -0.458752
vn 0.119704 0.020019 -0.992608
vn 0.483866 0.017292 -0.874971
vn -0.479970 0.018238 -0.877095
vn -0.882377 0.023887 -0.469937
vn -0.981917 0.027124 -0.187360
vn -0.843412 0.024424 0.536712
s 1
g pCube57 group2
usemtl initialShadingGroup
f 18/29/1 20/31/2 21/32/3 4/4/4
s 2
f 16/27/5 17/28/6 10/17/7 6/6/8
s 3
f 23/34/9 24/36/10 16/27/11 6/6/12
s 4
f 14/25/13 15/26/14 8/8/15 11/19/16
s 5
f 10/18/17 22/33/18 23/35/19 6/12/20
s 6
f 25/37/21 26/39/22 9/15/23 5/14/24
s 2
f 17/28/6 18/29/25 4/4/26 10/17/7
s 5
f 21/32/27 22/33/18 10/18/17 4/4/28
s 4
f 13/24/29 14/25/13 11/19/16 2/10/30
s 6
f 9/15/23 26/39/22 19/30/31 3/3/32
s 4
f 12/22/33 14/25/13 13/24/29 1/9/34
f 7/7/35 15/26/14 14/25/13 12/22/33
s 3
f 5/5/36 16/27/11 24/36/10 25/38/37
s 2
f 9/16/38 17/28/6 16/27/5 5/5/39
f 3/3/40 18/29/25 17/28/6 9/16/38
s 1
f 19/30/41 20/31/2 18/29/1 3/3/42
f 1/1/43 13/23/44 20/31/2 19/30/41
f 21/32/3 20/31/2 13/23/44 2/2/45
s 5
f 2/2/46 11/20/47 22/33/18 21/32/27
f 23/35/19 22/33/18 11/20/47 8/11/48
s 3
f 15/26/49 24/36/10 23/34/9 8/8/50
f 25/38/37 24/36/10 15/26/49 7/7/51
s 6
f 7/13/52 12/21/53 26/39/22 25/37/21
f 19/30/31 26/39/22 12/21/53 1/1/54
