# This file uses centimeters as units for non-parametric coordinates.

mtllib 1.mtl
g default
v 15.047986 46.506622 0.360332
v 15.945268 46.506622 0.360332
v 15.047986 50.742737 0.360332
v 15.945268 50.742737 0.360332
v 14.858432 50.224590 -0.318670
v 16.001175 50.529644 -0.318670
v 14.858432 46.802612 -0.318670
v 16.001175 46.506622 -0.318670
v 14.862720 51.122540 0.000000
v 16.130533 51.122540 0.000000
v 16.130533 45.592819 0.000000
v 14.862720 46.126820 0.000000
v 15.496627 45.923946 0.671064
v 15.496627 46.686592 0.000000
v 15.496627 47.116962 -0.671064
v 15.496627 50.132397 -0.671064
v 15.496627 50.562767 0.000000
v 15.496627 51.656540 0.671064
v 15.142564 49.263275 0.284370
v 15.496627 49.396816 0.529597
v 15.850690 49.263275 0.284370
v 15.996900 49.055050 0.000000
v 15.894811 49.431805 -0.251491
v 15.496627 49.260925 -0.529597
v 15.098443 49.176819 -0.251491
v 14.996354 49.264736 0.000000
vt 0.375000 0.000000
vt 0.625000 0.000000
vt 0.375000 0.250000
vt 0.625000 0.250000
vt 0.375000 0.500000
vt 0.625000 0.500000
vt 0.375000 0.750000
vt 0.625000 0.750000
vt 0.375000 1.000000
vt 0.625000 1.000000
vt 0.875000 0.000000
vt 0.875000 0.250000
vt 0.125000 0.000000
vt 0.125000 0.250000
vt 0.250000 0.250000
vt 0.375000 0.375000
vt 0.625000 0.375000
vt 0.750000 0.250000
vt 0.625000 0.875000
vt 0.750000 0.000000
vt 0.250000 0.000000
vt 0.375000 0.875000
vt 0.500000 0.000000
vt 0.500000 1.000000
vt 0.500000 0.875000
vt 0.500000 0.750000
vt 0.500000 0.500000
vt 0.500000 0.375000
vt 0.500000 0.250000
vt 0.375000 0.125610
vt 0.500000 0.125610
vt 0.625000 0.125610
vt 0.750000 0.125610
vt 0.625000 0.624390
vt 0.875000 0.125610
vt 0.500000 0.624390
vt 0.125000 0.125610
vt 0.375000 0.624390
vt 0.250000 0.125610
vn 0.000000 -0.073055 0.997328
vn 0.000000 -0.011198 0.999937
vn 0.542906 0.008318 0.839752
vn 0.511611 -0.062770 0.856921
vn -0.079670 0.639618 -0.764553
vn -0.084254 0.700554 -0.708608
vn -0.155920 0.765504 -0.624253
vn -0.364003 0.670902 -0.646059
vn 0.600174 -0.015911 -0.799711
vn 0.082692 0.000597 -0.996575
vn 0.119858 -0.162618 -0.979382
vn 0.616705 -0.115804 -0.778630
vn -0.208657 -0.739185 -0.640366
vn -0.153319 -0.646158 -0.747645
vn -0.581170 -0.518038 -0.627597
vn -0.565688 -0.710138 -0.419167
vn 0.977231 -0.076118 0.198057
vn 0.996840 0.022048 0.076320
vn 0.942082 -0.039091 -0.333096
vn 0.933713 -0.078210 -0.349376
vn -0.998002 0.017077 -0.060832
vn -0.968422 -0.008221 0.249180
vn -0.937779 -0.085900 0.336439
vn -0.990810 -0.126295 0.048422
vn -0.000000 0.831564 -0.555429
vn 0.111816 0.826349 -0.551947
vn 0.904808 -0.019906 0.425354
vn 0.894478 -0.067018 0.442062
vn -0.176570 -0.971754 -0.156577
vn -0.412241 -0.909150 0.059193
vn -0.901391 0.000025 0.433005
vn -0.903609 -0.071406 0.422365
vn 0.195919 -0.760164 -0.619489
vn 0.083657 -0.929216 -0.359944
vn 0.243668 -0.646178 -0.723243
vn -0.514268 -0.155991 -0.843324
vn -0.533766 0.007063 -0.845603
vn 0.016121 0.687412 -0.726089
vn 0.083663 0.595217 -0.799198
vn -0.111816 0.826350 -0.551944
vn -0.542906 0.008318 0.839752
vn -0.511611 -0.062770 0.856921
vn -0.554738 0.037433 0.831183
vn 0.000000 0.044990 0.998987
vn 0.554738 0.037433 0.831182
vn 0.914329 0.038477 0.403141
vn 0.993330 0.041271 0.107667
vn 0.953504 0.038970 -0.298851
vn 0.097306 0.066841 -0.993008
vn 0.586827 0.045588 -0.808428
vn -0.537338 0.067366 -0.840672
vn -0.992663 0.068503 -0.099641
vn -0.956043 0.050266 0.288888
vn -0.898056 0.040414 0.438022
s 1
g pCube58 group2
usemtl initialShadingGroup
f 18/29/1 20/31/2 21/32/3 4/4/4
s 2
f 16/27/5 17/28/6 10/17/7 6/6/8
s 3
f 23/34/9 24/36/10 16/27/11 6/6/12
s 4
f 14/25/13 15/26/14 8/8/15 11/19/16
s 5
f 10/18/17 22/33/18 23/35/19 6/12/20
s 6
f 25/37/21 26/39/22 9/15/23 5/14/24
s 2
f 17/28/6 18/29/25 4/4/26 10/17/7
s 5
f 21/32/27 22/33/18 10/18/17 4/4/28
s 4
f 13/24/29 14/25/13 11/19/16 2/10/30
s 6
f 9/15/23 26/39/22 19/30/31 3/3/32
s 4
f 12/22/33 14/25/13 13/24/29 1/9/34
f 7/7/35 15/26/14 14/25/13 12/22/33
s 3
f 5/5/36 16/27/11 24/36/10 25/38/37
s 2
f 9/16/38 17/28/6 16/27/5 5/5/39
f 3/3/40 18/29/25 17/28/6 9/16/38
s 1
f 19/30/41 20/31/2 18/29/1 3/3/42
f 1/1/43 13/23/44 20/31/2 19/30/41
f 21/32/3 20/31/2 13/23/44 2/2/45
s 5
f 2/2/46 11/20/47 22/33/18 21/32/27
f 23/35/19 22/33/18 11/20/47 8/11/48
s 3
f 15/26/49 24/36/10 23/34/9 8/8/50
f 25/38/37 24/36/10 15/26/49 7/7/51
s 6
f 7/13/52 12/21/53 26/39/22 25/37/21
f 19/30/31 26/39/22 12/21/53 1/1/54
